<svg id="Flat" height="512" viewBox="0 0 512 512" width="512" xmlns="http://www.w3.org/2000/svg"><g><ellipse cx="256" cy="80" fill="#24afd6" rx="96" ry="56"/><g><path d="m405.0124 161.8252a75.5555 75.5555 0 0 0 -30.9241-66.4882l-2.3292-1.694a196.8117 196.8117 0 0 0 -115.7591-37.643 196.8117 196.8117 0 0 0 -115.759 37.643l-2.3292 1.694a75.5555 75.5555 0 0 0 -30.9241 66.4881 75.5559 75.5559 0 0 0 75.364 70.1728h147.2967a75.5559 75.5559 0 0 0 75.364-70.1727z" fill="#79d8eb"/><path d="m472 488a58.5506 58.5506 0 0 0 -47.0678-57.4136l-112.9322-22.5864-17.6-64h-76.8l-17.6 64-112.9322 22.5864a58.5506 58.5506 0 0 0 -47.0678 57.4136z" fill="#ffd4cf"/></g><g><path d="m208.92 383.5662c15.36 10.3638 31.5038 16.4338 47.08 16.4338s31.72-6.07 47.08-16.4338l-8.68-31.5642h-76.8z" fill="#fbb8b0"/><path d="m368 232c0 72.9016-64 152-112 152s-112-79.0984-112-152 32-120 112-120 112 47.0984 112 120z" fill="#ffd4cf"/></g><path d="m432.208 24 11.387 20.821 20.821 11.387-20.821 11.387-11.387 20.821-11.387-20.821-20.821-11.387 20.821-11.387z" fill="#fed672"/><path d="m55.792 168 11.387 20.821 20.821 11.387-20.821 11.387-11.387 20.821-11.387-20.821-20.821-11.387 20.821-11.387z" fill="#fed672"/><path d="m402.68 226.5027c0-23.4736-18.3087-42.5027-40.8934-42.5027a39.5275 39.5275 0 0 0 -21.1338 6.12 23.9976 23.9976 0 0 0 -31.7854 34.8781 42.5762 42.5762 0 0 0 -24.597 38.9793 43.4132 43.4132 0 0 0 8.182 25.5068 43.188 43.188 0 0 0 -12.4524 30.5248c0 23.4737 18.3086 42.503 40.8933 42.503a39.75 39.75 0 0 0 25.36-9.1729c5.681 5.802 12.4066 9.1729 19.6228 9.1729 20.3264 0 36.8039-26.6409 36.8039-59.5039 0-18.2066-5.0627-34.4927-13.03-45.4078a43.1557 43.1557 0 0 0 13.03-31.0976z" fill="#dcf9fe"/><path d="m109.32 226.5027c0-23.4736 18.3087-42.5027 40.8934-42.5027a39.5275 39.5275 0 0 1 21.1338 6.12 23.9976 23.9976 0 0 1 31.7854 34.8781 42.5762 42.5762 0 0 1 24.597 38.9793 43.4132 43.4132 0 0 1 -8.182 25.5068 43.188 43.188 0 0 1 12.4524 30.5248c0 23.4737-18.3086 42.503-40.8933 42.503a39.75 39.75 0 0 1 -25.36-9.1729c-5.681 5.802-12.4066 9.1729-19.6228 9.1729-20.3264 0-36.8039-26.6409-36.8039-59.5039 0-18.2066 5.0627-34.4927 13.03-45.4078a43.1557 43.1557 0 0 1 -13.03-31.0976z" fill="#dcf9fe"/><path d="m423.1946 487.998-22.9734-82.5759-34.3574-18.0559-44.1959-61.6986 2.5092-2.4017a20 20 0 0 1 23.163-3.24l27.275 14.3929-36.5085-95.6962a20 20 0 0 1 12.3792-27.2072l1.4418-.4457 52.2024 69.8463a60.0011 60.0011 0 0 1 10.1828 19.3965l29.7024 89.1528 43.18 90.6762v7.8565z" fill="#ffd4cf"/><path d="m88.8054 487.998 22.9734-82.5759 34.3574-18.0559 44.1959-61.6986-2.5092-2.4017a20 20 0 0 0 -23.163-3.24l-27.275 14.3929 36.5085-95.6962a20 20 0 0 0 -12.3792-27.2072l-1.4418-.4457-52.2019 69.8463a60.0011 60.0011 0 0 0 -10.1828 19.3965l-29.7024 89.1528-43.18 90.6762v7.8565z" fill="#ffd4cf"/><g fill="#fbb8b0"><path d="m390.6846 471.89-80.959-13.4931a25.9183 25.9183 0 0 1 -21.7256-25.6469v-.752h16v.752a9.968 9.968 0 0 0 8.356 9.8633l80.9594 13.4931z"/><path d="m121.3154 471.89-2.6308-15.7832 80.9594-13.4931a9.968 9.968 0 0 0 8.356-9.8637v-.752h16v.752a25.9183 25.9183 0 0 1 -21.7261 25.6465z"/></g></g></svg>