<?xml version="1.0" encoding="UTF-8" standalone="no"?> <svg viewBox="-66 0 511 512" xmlns="http://www.w3.org/2000/svg"><path d="m320.25 76h-50c-22.089844 0-40-17.910156-40-40v-26h-80v26c0 22.089844-17.910156 40-40 40h-47.859375c-19.929687 0-38.390625 13.621094-41.589844 33.28125-4.078125 25.058594 15.160157 46.71875 39.449219 46.71875h257.859375c19.929687 0 38.390625-13.621094 41.589844-33.28125 4.082031-25.058594-15.160157-46.71875-39.449219-46.71875zm0 0" fill="#fed2a4"/><path d="m10.25 502h360l-.371094-1.558594c-34.507812-146.070312-93.128906-223.722656-95.617187-230.089844-1.820313-4.660156-1.710938-9.371093-.332031-14.351562 6.042968-21.730469 36.320312-48.679688 36.320312-100v-20c0-11.050781-8.949219-20-20-20-8.164062.089844-12.542969-.265625-19.9375.539062-35.589844 3.78125-68.761719 27.472657-80.0625 59.460938-11.300781-31.988281-44.46875-55.679688-80.058594-59.460938-7.398437-.804687-11.886718-.453124-19.941406-.539062-11.050781 0-20 8.949219-20 20v20c0 51.128906 30.261719 78.230469 36.3125 100 1.378906 4.980469 1.5 9.679688-.3125 14.320312 0-1.300781-63.144531 91.476563-96 231.679688zm0 0" fill="#e87288"/><path d="m250.5 326c-5.519531 0-10 4.480469-10 10s4.480469 10 10 10 10-4.480469 10-10-4.480469-10-10-10zm0 0"/><path d="m130.5 326c-5.519531 0-10 4.480469-10 10s4.480469 10 10 10 10-4.480469 10-10-4.480469-10-10-10zm0 0"/><path d="m97.53125 265.613281c-.78125 1.050781-1.53125 2.179688-2.289062 3.328125-11.484376 17.332032-24.371094 41.289063-33.558594 60-18.238282 37.140625-43.609375 96.917969-60.917969 170.777344-.972656 4.144531.769531 8.589844 4.6875 10.925781 1.578125.941407 3.410156 1.355469 5.242187 1.355469h359.632813c2.8125 0 5.566406-1.082031 7.46875-3.15625 4.386719-4.785156 2.097656-10.058594 2.066406-10.703125-12.785156-54.109375-30.335937-105.292969-52.164062-152.140625-21.761719-46.695312-41.253907-74.636719-43.976563-79.558594-.617187-1.726562-.734375-3.554687-.367187-5.722656.679687-1.265625 1.082031-2.695312 1.160156-4.207031 1.914063-5.28125 5.605469-11.53125 9.796875-18.625 10.046875-17.003907 23.464844-39.722657 25.824219-71.925781 24.714843-.808594 45.90625-18.429688 49.683593-41.632813 5-30.707031-18.445312-58.328125-49.320312-58.328125h-50.25c-16.566406 0-30-13.429688-30-30v-26c0-5.523438-4.476562-10-10-10h-80c-5.523438 0-10 4.476562-10 10v26c0 16.570312-13.429688 30-30 30h-47.859375c-25.46875 0-47.59375 17.914062-51.460937 41.671875-4.996094 30.707031 18.449218 58.328125 49.320312 58.328125h.621094c2.371094 32.054688 15.757812 54.777344 25.78125 71.789062 4.210937 7.148438 7.917968 13.441407 9.835937 18.753907.078125 1.496093.476563 2.90625 1.144531 4.15625.320313 1.84375.289063 3.433593-.101562 4.914062zm260.007812 226.386719h-334.566406c16.714844-66.375 39.65625-120.113281 56.414063-154.242188 17.222656-35.082031 31.460937-56.820312 34.261719-60.6875.890624-.980468 1.589843-2.140624 2.035156-3.417968.941406-2.488282 1.523437-5.035156 1.773437-7.652344h20.179688l-6.8125 29.070312c-1.328125 5.671876 2.457031 11.34375 8.359375 12.1875 5.171875.734376 9.992187-2.835937 11.183594-7.925781l7.8125-33.332031h22.070312v69.6875c0 5.011719 3.554688 9.492188 8.515625 10.207031 6.183594.886719 11.484375-3.882812 11.484375-9.894531v-70h22.074219l7.882812 33.632812c1.253907 5.359376 6.625 8.71875 12.015625 7.453126 5.378906-1.257813 8.714844-6.640626 7.457032-12.015626l-6.816407-29.070312h20.183594c.265625 2.734375.882813 5.390625 1.898437 7.992188 3.359376 8.59375 58.363282 81.109374 92.59375 218.007812zm-7.707031-370.886719c-2.207031 13.542969-14.730469 23.898438-29.582031 24.8125v-9.925781c0-16.570312-13.429688-30-30-30h-10v-20h40c17.960938 0 32.699219 15.949219 29.582031 35.113281zm-189.582031-85.113281v-16h60v16c0 24.144531 17.207031 44.347656 40 48.992188v22.957031c-29.589844 5.675781-55.316406 23.335937-70 45.753906-14.578125-22.261719-40.234375-40.050781-70-45.753906v-22.957031c22.796875-4.644532 40-24.847657 40-48.992188zm-129.578125 74.886719c2.308594-14.1875 15.945313-24.886719 31.71875-24.886719h37.859375v20h-10c-16.566406 0-30 13.429688-30 30v10c-17.960938 0-32.699219-15.949219-29.578125-35.113281zm49.578125 45.113281v-20c0-5.523438 4.476562-10 10-10h10c35.105469 0 69.71875 22.605469 80.570312 53.332031 1.414063 3.996094 5.191407 6.667969 9.429688 6.667969 4.242188 0 8.019531-2.671875 9.429688-6.667969 10.886718-30.824219 45.574218-53.332031 80.570312-53.332031h10c5.523438 0 10 4.476562 10 10v20c0 32.09375-12.976562 54.0625-23.40625 71.710938-3.871094 6.550781-7.367188 12.476562-9.898438 18.289062h-153.394531c-2.535156-5.832031-6.039062-11.78125-9.917969-18.367188-10.417968-17.679687-23.382812-39.679687-23.382812-71.632812zm0 0"/></svg>