<svg id="Capa_1" enable-background="new 0 0 512 512" height="512" viewBox="0 0 512 512" width="512" xmlns="http://www.w3.org/2000/svg"><g><g><path clip-rule="evenodd" d="m26.44 146.113 17.346 56.421 43.774 39.395 28.618-20.413v251.877h139.822 139.821v-50.083l-20.208-54.99 20.208-46.725c0-23.45 0-57.092 0-100.079l28.618 20.413 37.583-31.744 23.537-64.072-100.193-71.46c-11.418-8.148-28.239-6.98-42.314-6.98h-178.835c-14.076 0-26.165-1.168-37.583 6.98z" fill="#a0ddfa" fill-rule="evenodd"/></g><g><path clip-rule="evenodd" d="m194.295 40.69 59.34 66.174 59.339-66.174z" fill="#75cef9" fill-rule="evenodd"/></g><g><path clip-rule="evenodd" d="m485.56 146.113-32.21 50.492-28.91 45.323 20.909 14.894c5.052 3.592 12.382 2.599 15.711-2.628l48.972-76.775c3.329-5.227 2.424-12.119-2.628-15.711z" fill="#fde588" fill-rule="evenodd"/></g><g><path clip-rule="evenodd" d="m367.524 102.6 100.193 71.489 17.843-27.977-100.193-71.46c-11.418-8.148-28.239-6.98-42.314-6.98l-13.433 27.947c13.053-.115 27.654-.319 37.904 6.981z" fill="#75cef9" fill-rule="evenodd"/></g><g><path clip-rule="evenodd" d="m467.717 174.09 21.843 15.565c5.052 3.592 5.957 10.484 2.628 15.711l-31.305 49.091c.058-.088.117-.175.175-.263l48.972-76.775c3.329-5.227 2.424-12.119-2.628-15.711l-21.843-15.594z" fill="#fdd76f" fill-rule="evenodd"/></g><g><path clip-rule="evenodd" d="m164.217 67.673 34.517 71.781c1.489 3.125 6.074 2.511 8.907.496l45.994-33.087-59.34-66.173c-2.307-2.57-6.337-2.804-8.907-.467l-20.704 18.544c-2.57 2.306-1.986 5.782-.467 8.906z" fill="#fde588" fill-rule="evenodd"/></g><g><path clip-rule="evenodd" d="m312.974 40.69-59.339 66.174 45.994 33.087c2.803 2.015 7.417 2.628 8.907-.496l34.517-71.781c1.519-3.125 2.103-6.6-.496-8.907l-20.675-18.544c-2.6-2.337-6.601-2.103-8.908.467z" fill="#fde588" fill-rule="evenodd"/></g><g><path clip-rule="evenodd" d="m185.038 201.92c-15.682 0-28.385 12.733-28.385 28.415 0 10.338 5.49 19.362 13.754 24.326-2.395 4.176-3.738 8.965-3.738 14.105 0 15.682 12.703 28.385 28.414 28.385 8.06 0 15.331-3.358 20.529-8.761 5.169 5.403 12.44 8.761 20.5 8.761 15.711 0 28.414-12.703 28.414-28.385 0-4.906-1.227-9.491-3.387-13.492 8.118-5.023 13.521-13.988 13.521-24.239 0-15.682-12.703-28.386-28.385-28.386-1.139 0-2.249.058-3.329.175-3.358-11.944-14.309-20.705-27.333-20.705-12.791 0-23.566 8.411-27.158 20.004-1.11-.115-2.249-.203-3.417-.203z" fill="#fe8d94" fill-rule="evenodd"/></g><g><path clip-rule="evenodd" d="m329.94 311.608c-13.258 5.169-21.026 18.31-20.004 31.773-1.226.321-2.424.73-3.621 1.197-16.266 6.366-24.296 24.735-17.901 41.001 4.205 10.718 13.579 17.843 24.18 19.625-.788 5.286-.234 10.834 1.84 16.149 6.395 16.266 24.734 24.268 41 17.872 8.381-3.271 14.572-9.725 17.726-17.434 6.921 3.183 14.952 3.913 22.661 1.519v-101.715c-7.739-3.884-17.054-4.614-25.757-1.197-1.139.467-2.278.993-3.358 1.548-8.322-11.01-23.274-15.653-36.766-10.338z" fill="#fe8d94" fill-rule="evenodd"/></g><g><path clip-rule="evenodd" d="m200.282 226.772c-8.498 8.498-8.498 22.253 0 30.751s22.252 8.498 30.75 0 8.498-22.253 0-30.751-22.252-8.498-30.75 0z" fill="#fde588" fill-rule="evenodd"/></g><g><path clip-rule="evenodd" d="m1.968 177.419 48.972 76.775c3.329 5.227 10.659 6.22 15.711 2.628l20.909-14.894-61.12-95.815-21.843 15.595c-5.052 3.592-5.958 10.484-2.629 15.711z" fill="#fde588" fill-rule="evenodd"/></g><g><path clip-rule="evenodd" d="m314.434 84.962 15.185 10.659.029-.058 13.404-27.889c1.519-3.125 2.103-6.6-.496-8.907l-20.675-18.544c-2.599-2.336-6.6-2.103-8.907.467l-23.771 26.516 3.884 2.745z" fill="#fdd76f" fill-rule="evenodd"/></g><g><path clip-rule="evenodd" d="m373.16 421.791c6.921 3.183 14.952 3.913 22.661 1.519v-101.715c-7.593-3.826-16.704-4.585-25.26-1.373v48.769 8.002 49.821c1.022-1.606 1.898-3.271 2.599-5.023z" fill="#ff6d75" fill-rule="evenodd"/></g><g><path clip-rule="evenodd" d="m395.821 473.393h-25.26v-46.579c1.022-1.606 1.898-3.271 2.599-5.023 6.921 3.183 14.952 3.913 22.661 1.519v-101.715c-7.593-3.826-16.704-4.585-25.26-1.373v-108.256c0-6.95 5.694-12.616 12.645-12.616 6.95 0 12.615 5.665 12.615 12.616z" fill="#75cef9" fill-rule="evenodd"/></g><g><path clip-rule="evenodd" d="m362.063 353.105c-10.98-4.789-23.742.234-28.531 11.214s.204 23.742 11.185 28.531c10.98 4.789 23.742-.204 28.531-11.185 4.789-10.979-.205-23.77-11.185-28.56z" fill="#fde588" fill-rule="evenodd"/></g></g></svg>