<svg id="Layer_1" enable-background="new 0 0 464 464" height="512" viewBox="0 0 464 464" width="512" xmlns="http://www.w3.org/2000/svg"><path d="m324.035 144.48v175.04c0 21.3-17.13 38.63-38.41 38.89l-11.79 84.89c-1.65 11.87-11.79 20.7-23.77 20.7h-104.88c-11.98 0-22.12-8.83-23.77-20.7-5.002-35.972-.606-4.336-11.79-84.89-21.26-.26-38.41-17.57-38.41-38.89v-175.04c0-21.3 17.13-38.63 38.41-38.89 11.257-81.08 6.85-49.365 11.79-84.89 1.65-11.87 11.79-20.7 23.77-20.7h104.88c11.98 0 22.12 8.83 23.77 20.7l11.79 84.89c21.26.26 38.41 17.57 38.41 38.89z" fill="#d6f4fc"/><path d="m324.035 319.52c0 21.463-17.389 38.89-38.89 38.89-6.872 0-164.496 0-175.52 0-21.26-.26-38.41-17.57-38.41-38.89v-175.04c0-21.463 17.389-38.89 38.89-38.89h175.52c21.26.26 38.41 17.57 38.41 38.89z" fill="#42434d"/><path d="m181.625 411.21c0 4.42-3.58 8-8 8h-55.56c-1.478-10.653-.87-6.271-2.22-16h57.78c4.42 0 8 3.58 8 8z" fill="#bdeffc"/><path d="m287.171 105.639c32.138 1.654 30.405 49.951-1.775 49.951-1.59 0-3.159 0-4.708 0-88.08.001-159.473 71.404-159.473 159.484v5.621c0 32.334-50 34.842-50-1.174v-175.041c0-21.32 17.15-38.63 38.41-38.89 186.68 0 176.124-.024 177.546.049z" fill="#4d4e59"/><g fill="#9fe2f5"><path d="m323.995 247.3c-13.306 0-20.079-16.155-10.64-25.61 5.862-5.841 15.337-5.862 21.22 0 9.516 9.516 2.569 25.61-10.58 25.61z"/><path d="m349.432 206.84c-14.049-14.031-36.826-14.097-50.92-.003-3.125 3.124-8.189 3.124-11.314-.001-3.124-3.124-3.124-8.189 0-11.313 20.341-20.339 53.233-20.285 73.54-.003 3.126 3.122 3.129 8.188.007 11.313-3.12 3.125-8.186 3.131-11.313.007z"/><path d="m379.13 177.139c-30.493-30.474-79.842-30.478-110.318-.001-3.124 3.123-8.189 3.123-11.313 0-3.124-3.124-3.124-8.189 0-11.314 36.691-36.691 96.167-36.755 132.942-.001 3.125 3.123 3.126 8.188.003 11.313-3.123 3.124-8.189 3.127-11.314.003z"/></g><path d="m250.492 30h-36.295c-30.294 0-56.01 22.32-60.173 52.327-.671 4.834-1.654 11.916-3.229 23.263h-41.17c11.257-81.08 6.85-49.365 11.79-84.89 1.65-11.87 11.79-20.7 23.77-20.7h104.88c21.191 0 19.889 30 .427 30z" fill="#e8f8fc"/><path d="m181.625 52.79c0 4.42-3.58 8-8 8h-57.78c1.478-10.653.87-6.271 2.22-16h55.56c4.42 0 8 3.58 8 8z" fill="#bdeffc"/><path d="m285.625 358.41-4.07 29.33h-167.86l-4.07-29.33z" fill="#bdeffc"/></svg>