<?xml version="1.0" encoding="iso-8859-1"?>
<!-- Generator: Adobe Illustrator 19.0.0, SVG Export Plug-In . SVG Version: 6.00 Build 0)  -->
<svg version="1.1" id="Capa_1" xmlns="http://www.w3.org/2000/svg" xmlns:xlink="http://www.w3.org/1999/xlink" x="0px" y="0px"
	 viewBox="0 0 512.001 512.001" style="enable-background:new 0 0 512.001 512.001;" xml:space="preserve">
<path style="fill:#FFFFFF;" d="M485.414,188.211L464.419,63.613C459.075,31.548,371.107,7.5,256,7.5S52.925,31.548,47.581,63.613
	L26.586,188.211c-1.299,7.713,3.156,15.238,10.544,17.807l74.58,25.934v264.532c0,4.427,3.589,8.016,8.016,8.016h272.548
	c4.427,0,8.016-3.589,8.016-8.016V231.952l74.58-25.934C482.258,203.449,486.713,195.924,485.414,188.211z"/>
<path style="fill:#FF8031;" d="M256,7.5c-41.055,0-78.624,3.072-110.258,8.463c11.334,31.9,41.295,94.814,110.258,134.884
	c68.963-40.07,98.923-102.984,110.258-134.884C334.625,10.572,297.055,7.5,256,7.5z"/>
<g>
	<path style="fill:#FEA82F;" d="M256,31.548c-34.168,0-65.434,2.557-91.76,7.043c9.433,26.548,34.367,78.908,91.76,112.255
		c57.393-33.348,82.328-85.707,91.76-112.255C321.434,34.105,290.168,31.548,256,31.548z"/>
	<path style="fill:#FEA82F;" d="M93.973,150.594L76.678,219.77l35.031,12.182v-79.174c0-4.972-4.031-9.003-9.003-9.003l0,0
		C98.576,143.774,94.975,146.586,93.973,150.594z"/>
</g>
<polygon style="fill:#FFC850;" points="272.032,264.016 239.968,264.016 231.952,440.371 280.048,440.371 "/>
<path style="fill:#FEA82F;" d="M273.795,302.797l-1.763-38.781h-32.065l-8.016,176.355H256V312.023
	c0-7.706,7.706-13.034,14.916-10.313L273.795,302.797z"/>
<g>
	<path style="fill:#ABFFDB;" d="M313.268,264.414H198.732c-43.997,16.635-41.49,72.095-41.49,72.095L256,272.032l98.758,64.477
		C354.758,336.51,357.265,281.049,313.268,264.414z"/>
	<path style="fill:#ABFFDB;" d="M256,235.878c-7.379-22.622-25.988-47.717-73.19-30.017L256,264.016l73.19-58.155
		C281.988,188.161,263.379,213.257,256,235.878z"/>
</g>
<path style="fill:#FFC850;" d="M26.586,188.211c-1.299,7.713,3.156,15.238,10.544,17.807l74.58,25.934v-36.254l-81.604-28.376
	L26.586,188.211z"/>
<g>
	<polygon style="fill:#FEA82F;" points="76.678,219.77 111.71,231.952 111.71,195.697 85.017,186.416 	"/>
	<path style="fill:#FEA82F;" d="M418.027,150.594l17.294,69.176l-35.031,12.182v-79.174c0-4.972,4.031-9.003,9.003-9.003l0,0
		C413.424,143.774,417.026,146.586,418.027,150.594z"/>
</g>
<path style="fill:#FFC850;" d="M485.414,188.211c1.299,7.713-3.156,15.238-10.544,17.807l-74.58,25.934v-36.254l81.604-28.376
	L485.414,188.211z"/>
<g>
	<polygon style="fill:#FEA82F;" points="435.322,219.77 400.29,231.952 400.29,195.697 426.983,186.416 	"/>
	<path style="fill:#FEA82F;" d="M392.274,504.5H119.726c-4.427,0-8.016-3.589-8.016-8.016v-16.032h288.58v16.032
		C400.29,500.911,396.701,504.5,392.274,504.5z"/>
</g>
<path style="fill:#FFC850;" d="M350.092,13.485C339.333,42.499,313.001,95.673,256,132.079
	c-56.71-36.258-83.17-89.546-94.024-118.603c-11.415,1.564-22.183,3.41-32.213,5.514c11.474,33.549,42.96,102.015,118.181,145.725
	c2.489,1.448,5.276,2.168,8.055,2.168c2.779,0,5.566-0.72,8.055-2.168c75.221-43.71,106.707-112.176,118.181-145.725
	C372.227,16.89,361.481,15.047,350.092,13.485z"/>
<path style="fill:#92E0C0;" d="M256,258.75c-61.279-68.369-112.226,5.665-112.226,5.665h224.452
	C368.226,264.414,317.279,190.38,256,258.75z"/>
<path style="fill:#474D54;" d="M492.81,186.965L471.817,62.38c-2.195-13.169-15.858-31.853-68.489-46.087
	C364.483,5.786,312.161,0,256,0S147.517,5.786,108.671,16.292c-52.63,14.234-66.294,32.919-68.486,46.074L19.19,186.965
	c-1.913,11.361,4.595,22.353,15.477,26.137l69.543,24.183v259.2c0,8.556,6.96,15.516,15.516,15.516h272.549
	c8.556,0,15.516-6.96,15.516-15.516v-259.2l69.543-24.183C488.215,209.318,494.724,198.326,492.81,186.965z M38.555,162.318
	l16.424-97.473C57,52.72,78.536,39.982,112.587,30.772c3.939-1.065,8.032-2.077,12.253-3.041l14.855-3.08
	c5.573-1.045,11.336-2.008,17.265-2.89l15.384-2.059C198.117,16.623,226.486,15,256,15c30.839,0,58.914,1.74,83.671,4.73
	l15.379,2.077c5.974,0.898,11.717,1.872,17.228,2.913l14.851,3.094c42.464,9.734,67.668,23.681,69.895,37.044l16.422,97.46
	l2.528,15.002l2.045,12.136c0.694,4.119-1.666,8.104-5.611,9.477l-64.616,22.47V201.03v-15.881v-41.375c0-4.142-3.358-7.5-7.5-7.5
	s-7.5,3.358-7.5,7.5v352.709c0,0.285-0.231,0.516-0.516,0.516h-272.55c-0.285,0-0.516-0.231-0.516-0.516V143.774
	c0-4.142-3.358-7.5-7.5-7.5s-7.5,3.358-7.5,7.5v41.374v15.881v20.373l-64.616-22.47c-3.946-1.372-6.306-5.357-5.611-9.477
	l2.045-12.136L38.555,162.318z"/>
<g>
</g>
<g>
</g>
<g>
</g>
<g>
</g>
<g>
</g>
<g>
</g>
<g>
</g>
<g>
</g>
<g>
</g>
<g>
</g>
<g>
</g>
<g>
</g>
<g>
</g>
<g>
</g>
<g>
</g>
</svg>
