<?xml version="1.0" encoding="UTF-8" standalone="no"?> <svg id="Layer_1" data-name="Layer 1" xmlns="http://www.w3.org/2000/svg" viewBox="0 0 128 128"><defs><style>.cls-1{fill:#2d3e50;}</style></defs><title>n</title><path class="cls-1" d="M125.16924,105.82547c-.027-.05093-.05393-.10186-.07791-.14981q-.55281-1.00225-1.17154-1.98054-.70113-1.11011-1.48316-2.19328A41.84438,41.84438,0,0,0,90.41236,84.40205c-.03,0-.05693-.003-.08689-.003l-.12286-.006-.88091-.039-.764.65019q-.6472.55283-1.27642,1.03972a9.539,9.539,0,0,1-3.10114.767c-3.72977.23585-6.8885-2.15683-9.99951-6.10251-.92021-1.1671-57.62358-69.6525-57.62358-69.6525l-1.73784,1.39628C6.63631,19.01119,2.082,30.05848,1.99806,43.55375c-.03,4.857,6.35812,56.70764,6.35812,56.70764l.62321,6.48694q.427,4.41353.851,8.82406a1.51548,1.51548,0,0,0,1.50714,1.3693h9.76187a1.51494,1.51494,0,0,0,1.51312-1.41724c.039-.62323.0929-1.44123.15581-2.418.58128-8.94391,2.0974-31.425,3.49368-44.58768.11086-1.03672.21872-2.01351.32658-2.92138a87.4665,87.4665,0,0,1,13.5462,14.493A135.44461,135.44461,0,0,1,50.34608,96.507c2.83147,5.14461,5.28243,11.87427,10.00757,15.53274,5.29742,4.10191,12.27578,4.86,18.80767,4.90191.46142.003.92286.003,1.38128,0,6.17533-.045,12.32971-.10188,18.514-.10188H118.3467A7.60437,7.60437,0,0,0,125.16924,105.82547Z"/></svg>