<?xml version="1.0" encoding="iso-8859-1"?>
<!-- Generator: Adobe Illustrator 19.0.0, SVG Export Plug-In . SVG Version: 6.00 Build 0)  -->
<svg version="1.1" id="Capa_1" xmlns="http://www.w3.org/2000/svg" xmlns:xlink="http://www.w3.org/1999/xlink" x="0px" y="0px"
	 viewBox="0 0 512 512" style="enable-background:new 0 0 512 512;" xml:space="preserve">
<path style="fill:#E8EAE9;" d="M59.733,274.667l43.733-25.6l10.667-4.267l-3.2-2.133c0,0,48,28.8,68.267,49.067
	C198.4,312,267.733,369.6,267.733,369.6S284.8,399.467,371.2,395.2c87.467-4.267,112-5.333,112-5.333s40.533-3.2,24.533,14.933
	l-7.467,4.267c0,0-132.267,23.467-169.6,22.4c-36.267-1.067-66.133-11.733-72.533-18.133c-5.333-6.4-65.067-73.6-65.067-73.6
	S121.6,273.6,84.267,270.4L59.733,274.667z"/>
<g>
	<path style="fill:#CED6E0;" d="M118.4,242.667L118.4,242.667c-2.133,0-2.133-1.067-2.133-1.067L118.4,242.667z"/>
	<path style="fill:#CED6E0;" d="M512,398.4c-22.4,8.533-138.667,14.933-181.333,12.8c-49.067-2.133-70.4-29.867-70.4-29.867
		s-25.6-29.867-61.867-68.267c-22.4-24.533-67.2-50.133-96-65.067l13.867-5.333c2.133,1.067,6.4,3.2,11.733,6.4
		c39.467,23.467,75.733,53.333,107.733,86.4c17.067,18.133,30.933,33.067,30.933,33.067s22.4,35.2,103.467,25.6
		c87.467-4.267,112-5.333,112-5.333S512,388.8,512,398.4z"/>
</g>
<path style="fill:#F3705A;" d="M425.6,349.333c-3.2-12.8-22.4-22.4-32-25.6c-9.6-2.133-81.067-69.333-93.867-80
	c-12.8-10.667-30.933-53.333-35.2-76.8c-5.333-22.4-23.467-45.867-46.933-59.733c-19.2-11.733-71.467-10.667-100.267-8.533
	c-25.6,0-60.8-22.4-60.8-22.4s-7.467,9.6-29.867,42.667c-22.4,34.133-25.6,64-26.667,88.533C0,232,10.667,237.333,10.667,237.333
	L91.733,267.2c35.2-37.333,110.933-36.267,142.933-27.733s14.933,39.467,14.933,39.467c-14.933,22.4-41.6,75.733-41.6,75.733
	l12.8,14.933c0,0,36.267-66.133,45.867-83.2c9.6-17.067,5.333-35.2,5.333-35.2c19.2,23.467,96,76.8,96,76.8
	c-25.6-2.133-78.933,41.6-78.933,41.6L246.4,400.533l13.867,12.8c0,0,28.8-21.333,51.2-40.533c22.4-19.2,54.4-30.933,54.4-30.933
	l-48,86.4L339.2,430.4c16-10.667,42.667-78.933,42.667-78.933c3.2,3.2,8.533,11.733,8.533,11.733
	c9.6,23.467-8.533,62.933-8.533,62.933L416,421.867C428.8,402.667,428.8,363.2,425.6,349.333z M178.133,208.533
	c-14.933,0-29.867-2.133-44.8-5.333c-28.8-6.4-70.4-19.2-85.333-41.6c0,0-11.733-16-3.2-26.667
	C56.533,120,66.133,110.4,85.333,113.6c19.2,3.2,67.2,1.067,67.2,1.067s54.4-8.533,76.8,18.133c22.4,25.6,28.8,60.8,34.133,102.4
	C263.467,235.2,237.867,210.667,178.133,208.533z"/>
<path style="fill:#344A5E;" d="M68.267,434.667L67.2,315.2c0-7.467,1.067-13.867,4.267-20.267
	c4.267-9.6,10.667-18.133,26.667-13.867c27.733,7.467,62.933,38.4,64,38.4s24.533,19.2,40.533,39.467
	c17.067,21.333,53.333,72.533,100.267,75.733c45.867,3.2,134.4-6.4,164.267-13.867c30.933-7.467,43.733-12.8,43.733-12.8l-3.2-2.133
	c0,0-113.067,18.133-130.133,19.2c-17.067,1.067-51.2,6.4-71.467,2.133c-20.267-4.267-38.4-5.333-66.133-37.333
	c-28.8-32-39.467-56.533-75.733-83.2c-37.333-25.6-72.533-39.467-72.533-39.467l-84.267-32c0,0,22.4,40.533,24.533,73.6
	c1.067,16,10.667,126.933,10.667,126.933h25.6V434.667z"/>
<g>
</g>
<g>
</g>
<g>
</g>
<g>
</g>
<g>
</g>
<g>
</g>
<g>
</g>
<g>
</g>
<g>
</g>
<g>
</g>
<g>
</g>
<g>
</g>
<g>
</g>
<g>
</g>
<g>
</g>
</svg>
